<svg version="1.1" xmlns="http://www.w3.org/2000/svg" xmlns:xlink="http://www.w3.org/1999/xlink" viewBox="0 0 172 172"><g fill="none" fill-rule="nonzero" stroke="none" stroke-width="1" stroke-linecap="butt" stroke-linejoin="miter" stroke-miterlimit="10" stroke-dasharray="" stroke-dashoffset="0" font-family="none" font-weight="none" font-size="none" text-anchor="none" style="mix-blend-mode: normal"><path d="M0,172v-172h172v172z" fill="none"></path><g fill="#6a6ed6"><path d="M86,3.69531c-45.4557,0 -82.30469,36.84898 -82.30469,82.30469c0,45.4557 36.84898,82.30469 82.30469,82.30469c45.4557,0 82.30469,-36.84898 82.30469,-82.30469c0,-45.4557 -36.84898,-82.30469 -82.30469,-82.30469zM86,37.21291c16.3317,0.00002 29.57115,13.23949 29.57113,29.57119c-0.00001,16.3317 -13.23948,29.57115 -29.57118,29.57114c-16.3317,-0.00001 -29.57116,-13.23947 -29.57116,-29.57117c0.00002,-16.33171 13.23949,-29.57117 29.5712,-29.57117zM127.69888,119.05558c-0.00006,8.68823 -7.04325,15.73143 -15.73148,15.73148h-51.93483c-8.6882,-0.00007 -15.73133,-7.04328 -15.73131,-15.73148v0c-0.00002,-8.6882 7.04311,-15.73141 15.73131,-15.73148h51.93483c8.68823,0.00006 15.73143,7.04325 15.73148,15.73148z"></path></g></g></svg>